<?xml version="1.0" encoding="UTF-8"?>
<svg width="13px" height="14px" viewBox="0 0 13 14" version="1.1" xmlns="http://www.w3.org/2000/svg" xmlns:xlink="http://www.w3.org/1999/xlink">
    <!-- Generator: Sketch 51.2 (57519) - http://www.bohemiancoding.com/sketch -->
    <title>指定</title>
    <desc>Created with Sketch.</desc>
    <defs></defs>
    <g id="Page-1" stroke="none" stroke-width="1" fill="none" fill-rule="evenodd">
        <g id="2企业管理者-人员管理-批量" transform="translate(-257.000000, -135.000000)" fill="#000000" fill-rule="nonzero">
            <g id="指定" transform="translate(257.000000, 135.000000)">
                <path d="M0,0 L0,14 L11.7419371,14 L11.7419371,10.0624986 L10.9032271,10.0624986 L10.9032271,13.1250045 L0.838701651,13.1250045 L0.838701637,0.875009987 L10.9032271,0.875009987 L10.9032271,3.0625059 L11.7419371,3.0625059 L11.7419371,0 L0,0 Z M3.35483719,3.0625059 L3.35483719,3.93750572 L8.38709992,3.93750572 L8.38709992,3.0625059 L3.35483719,3.0625059 Z M2.5161272,10.0624986 L2.5161272,10.9374985 L6.70967019,10.9374985 L6.70967019,10.0624986 L2.5161272,10.0624986 Z M2.5161272,6.56250227 L2.5161272,7.43750209 L9.22580156,7.43750209 L9.22580156,6.56250227 L2.5161272,6.56250227 Z M12.119354,4.81249682 L7.96773588,9.14374977 L8.84838186,10.0625001 L13,5.73124714 L12.119354,4.81249682 Z M7.30515341,9.44124968 L7.33870178,10.7187489 L8.56321784,10.7537488 L7.30515341,9.44124968 Z" id="Shape"></path>
            </g>
        </g>
    </g>
</svg>