<?xml version="1.0" encoding="UTF-8"?>
<svg width="14px" height="14px" viewBox="0 0 14 14" version="1.1" xmlns="http://www.w3.org/2000/svg" xmlns:xlink="http://www.w3.org/1999/xlink">
    <!-- Generator: Sketch 51.2 (57519) - http://www.bohemiancoding.com/sketch -->
    <title>删 除</title>
    <desc>Created with Sketch.</desc>
    <defs></defs>
    <g id="Page-1" stroke="none" stroke-width="1" fill="none" fill-rule="evenodd">
        <g id="2企业管理者-人员管理-批量" transform="translate(-364.000000, -135.000000)" fill="#000000" fill-rule="nonzero">
            <g id="删-除" transform="translate(364.000000, 135.000000)">
                <path d="M11.4100811,12.6899099 C11.4100811,13.1718828 10.5278043,13.1447171 10.0581913,13.1447171 L3.11212344,13.1447171 C2.64163424,13.1447171 2.64776724,12.840636 2.64776724,12.358663 L2.64776523,2.66049074 L11.4100811,2.66049074 L11.4100811,12.6890336 L11.4100811,12.6899099 Z M4.97392896,0.891211819 L9.23724456,0.891211819 C9.33537266,0.891211819 9.40809259,1.12080621 9.40809259,1.22158237 L9.40809259,1.74824737 L4.78030119,1.74824737 L4.78030119,1.22245869 C4.78030119,1.12080621 4.87580086,0.891211819 4.97392896,0.891211819 Z M10.2491906,1.74824737 L10.2491906,1.22245869 C10.2491906,0.549449174 9.71299062,0 9.05763508,0 L4.95377765,0 C4.29754597,0 3.76222212,0.549449174 3.76222212,1.22158237 L3.76222212,1.74824737 L0.51435716,1.74824737 C0.227429643,1.75111796 -0.00284284371,1.98609007 2.65271489e-05,2.27307348 C6.07743769e-05,2.56672508 0.229610443,2.63945918 0.514357169,2.63945918 L1.74971989,2.63945918 L1.74971989,12.0721082 C1.74971989,13.1368302 1.57624342,14 2.61534993,14 L11.433737,14 C12.4728435,14 12.2590644,13.5399349 12.2590644,12.4752128 L12.2590644,2.63945918 L13.4856657,2.63945918 C13.7704124,2.63945918 13.9999621,2.55533299 13.9999621,2.26439658 C14.0033597,1.98274331 13.7778337,1.75166329 13.4962356,1.74826483 C13.4938868,1.74823649 12.4115385,1.74823067 10.2491906,1.74824737 Z M8.76412692,11.3903355 L8.76412692,4.90998999 C8.76412692,4.61817727 8.60904947,4.38157236 8.32517889,4.38157236 C8.04043216,4.38157236 7.88535472,4.61817727 7.88535472,4.90998999 L7.88535472,11.3903355 C7.88535472,11.6821482 8.04043216,11.7908112 8.32517889,11.7908112 C8.60904947,11.7908112 8.76412692,11.6821482 8.76412692,11.3903355 Z M6.13043874,11.3710566 L6.13043874,4.89071107 C6.13043874,4.59889835 5.97536129,4.38157236 5.69149071,4.38157236 C5.40586784,4.38157236 5.2569234,4.59889835 5.2569234,4.88983476 L5.2569234,11.3710566 C5.26743712,11.6628693 5.41725771,11.7645218 5.69149071,11.7645218 C5.97536129,11.7645218 6.13043874,11.6628693 6.13043874,11.3710566 Z" id="Shape"></path>
            </g>
        </g>
    </g>
</svg>