<?xml version="1.0" encoding="UTF-8"?>
<svg width="40px" height="30px" viewBox="0 0 40 30" version="1.1" xmlns="http://www.w3.org/2000/svg" xmlns:xlink="http://www.w3.org/1999/xlink">
    <!-- Generator: Sketch 51.2 (57519) - http://www.bohemiancoding.com/sketch -->
    <title>部门-o</title>
    <desc>Created with Sketch.</desc>
    <defs></defs>
    <g id="Page-1" stroke="none" stroke-width="1" fill="none" fill-rule="evenodd">
        <g id="1企业管理者" transform="translate(-248.000000, -101.000000)" fill="#585A5C" fill-rule="nonzero">
            <g id="Group-3-Copy" transform="translate(248.000000, 95.000000)">
                <g id="部门-o" transform="translate(0.000000, 6.000000)">
                    <g id="Group" transform="translate(0.750003, 0.867192)">
                        <path d="M17.6241689,12.9153041 C18.0968257,13.0240152 18.5896779,13.0815933 19.0954207,13.0815933 C19.6011634,13.0815933 20.0940156,13.0240152 20.5666724,12.9153041 C23.4657773,12.2479986 25.6271079,9.65182373 25.6271079,6.54990606 C25.6271079,2.9426753 22.7030811,0.0182187712 19.0954207,0.0182187712 C15.4881899,0.0182187712 12.5637334,2.9426753 12.5637334,6.54990606 C12.5637334,9.65182373 14.7254937,12.2479986 17.6241689,12.9153041 Z" id="Shape"></path>
                        <path d="M27.0762737,12.7388312 L27.0762737,12.7388305 C27.0762733,15.5867897 29.3850002,17.8955162 32.2329594,17.8955162 C35.0809186,17.8955167 37.3896451,15.5867897 37.3896451,12.7388305 C37.3896451,12.7388305 37.3896451,12.7388304 37.3896451,12.7388304 C37.3896451,9.89087111 35.0809186,7.58214459 32.2329594,7.58214459 C29.3850002,7.58214459 27.0762737,9.89087111 27.0762737,12.7388303 C27.0762737,12.7388303 27.0762737,12.7388304 27.0762737,12.7388305 L27.0762737,12.7388312 Z" id="Shape"></path>
                        <path d="M30.3906291,19.1208582 C29.9398864,19.1208582 29.5028937,19.1805848 29.0878151,19.2931631 L29.0878151,28.294901 L36.221925,28.294901 C37.4602858,28.294901 38.4640369,27.2911499 38.4640369,26.052789 L38.4640369,24.1108249 C38.4640369,21.3548061 36.2296593,19.1208582 33.4736405,19.1208582 L30.3906291,19.1208582 Z" id="Shape"></path>
                        <path d="M2.41776844,16.3851636 L2.41776824,16.3851634 C4.43161277,18.3989392 7.6966572,18.3988833 9.71043298,16.3850365 C11.7242088,14.371192 11.7241529,11.1061476 9.7103061,9.09237178 C9.7103061,9.09237178 9.7103061,9.09237178 9.7103061,9.09237178 L9.71030641,9.0923721 C7.69646188,7.07859631 4.43141745,7.07865217 2.41764167,9.09249875 C0.403865891,11.1063433 0.403921751,14.3713877 2.41776832,16.3851635 C2.41776832,16.3851635 2.41776832,16.3851635 2.41776832,16.3851635 Z" id="Shape"></path>
                        <path d="M0.0052421936,24.1108249 L0.0052421936,26.052789 C0.0052421936,27.2911499 1.00899336,28.294901 2.24692449,28.294901 L9.10302622,28.294901 L9.10302622,19.2261317 C8.77259615,19.156952 8.42970512,19.1208582 8.07865003,19.1208582 L4.99520894,19.1208582 C2.23919011,19.1208582 0.0052421936,21.3548061 0.0052421936,24.1108249 Z" id="Shape"></path>
                        <path d="M12.4062957,28.2540807 C11.6057869,28.2540807 10.9568721,27.6051658 10.9568721,26.8046571 L10.9568721,21.0154385 C10.9568721,17.7402706 13.6119143,15.0851855 16.8871251,15.0851855 L21.5266813,15.0851855 C24.8018492,15.0851855 27.4569343,17.7402277 27.4569343,21.0154385 L27.4569343,26.8047001 C27.4568913,27.6051658 26.8079335,28.2540807 26.0074678,28.2540807 L12.4062957,28.2540807 Z" id="Shape"></path>
                    </g>
                </g>
            </g>
        </g>
    </g>
</svg>