<?xml version="1.0" encoding="UTF-8"?>
<svg width="12px" height="12px" viewBox="0 0 12 12" version="1.1" xmlns="http://www.w3.org/2000/svg" xmlns:xlink="http://www.w3.org/1999/xlink">
    <!-- Generator: Sketch 51.2 (57519) - http://www.bohemiancoding.com/sketch -->
    <title>编辑</title>
    <desc>Created with Sketch.</desc>
    <defs></defs>
    <g id="Page-1" stroke="none" stroke-width="1" fill="none" fill-rule="evenodd">
        <g id="1企业管理者" transform="translate(-367.000000, -99.000000)" fill="#585A5C" fill-rule="nonzero">
            <g id="编辑" transform="translate(367.000000, 99.000000)">
                <path d="M4.12498867,6.37664309 C4.11673879,6.38714003 4.12873861,6.36389684 4.12498867,6.37664309 L3.20550268,8.96563332 C3.16979558,9.09865293 3.20587632,9.24066319 3.30075126,9.34052342 C3.36979496,9.41120478 3.46442567,9.45107399 3.56324688,9.45111618 C3.5961651,9.45116403 3.6289464,9.44687844 3.66074539,9.43836992 L5.99996576,8.6259822 C6.19083755,8.38530233 5.99996576,8.62823155 5.99996576,8.6259822 C6.16271294,8.42279181 5.98159104,8.64547647 5.99996576,8.6259822 L11.7321329,2.79531375 C11.9077755,2.61033779 12.0038983,2.36390518 11.9998788,2.10888976 L11.9998789,2.10889421 C11.9976526,1.80159085 11.8767345,1.50703282 11.662387,1.28675765 L11.1126448,0.718423631 C10.9047163,0.49968129 10.6175834,0.37364721 10.3157816,0.368650332 C10.0654452,0.366028036 9.82488965,0.465690326 9.64979099,0.64456968 L4.12499788,6.37663649 C4.11862297,6.38225985 4.12949781,6.36988847 4.12499788,6.37663649 L4.12498867,6.37664309 Z M4.85697763,6.76502972 C4.85697763,6.76502972 8.58892487,2.72746027 9.78102958,1.49632262 C9.95090257,1.32049905 10.2572725,0.926863602 10.4998934,1.12818016 C10.6873904,1.28375957 11.055635,1.70101301 11.2498827,1.87796158 C11.5566277,2.15725476 11.1036354,2.40280846 10.9476378,2.55726288 C9.79865479,3.70442741 5.80234464,7.73938006 5.80234464,7.73938006 L4.85698349,6.76466526 L4.85697763,6.76502972 Z M4.12499453,8.62599088 L4.39536497,7.37235322 L5.20497824,8.20760893 L4.09161963,8.52176658 L4.12499453,8.62599088 Z M11.2498862,4.87708025 C11.0545261,4.86534016 10.8866353,5.01414988 10.8748922,5.20945589 C10.8740408,5.22361461 10.8740408,5.23781177 10.8748922,5.25197049 L10.8748922,10.5004393 C10.7906142,10.8741376 10.4987048,11.1659651 10.1249029,11.2502207 L1.50002562,11.2502207 C1.09630917,11.2607093 0.76052875,10.9420267 0.750036381,10.5384221 C0.749707324,10.5257634 0.749707323,10.5130983 0.750036379,10.5004396 L0.750036379,1.50306953 C0.834314307,1.12937131 1.12622371,0.837543744 1.50002563,0.753288212 L7.49993516,0.753288212 C7.67418277,0.783603113 7.84002105,0.666961502 7.87034354,0.492762621 C7.87407122,0.471347995 7.87560776,0.449609581 7.8749294,0.427883822 C7.9135247,0.23395591 7.78755895,0.0454667052 7.59357778,0.00688269183 C7.55408774,-0.000972192989 7.5135555,-0.00211311963 7.47368626,0.00350791195 L1.27015374,0.00350791195 C0.560327591,0.0194665175 -0.00525926978,0.602085706 5.07996032e-05,1.31187218 L5.07996032e-05,10.681887 L5.08110968e-05,10.6818857 C-0.00616358772,11.393682 0.558426292,11.9796094 1.27015376,12 L10.3427648,12 C11.0574709,11.9811105 11.6271335,11.3966433 11.6274968,10.6818857 L11.6248732,5.25197539 L11.6248732,5.25197525 C11.6359556,5.05600831 11.4860331,4.88816404 11.2900118,4.87708513 C11.2766448,4.87632961 11.2632458,4.87632962 11.2498788,4.87708514 L11.2498862,4.87708025 Z" id="修改部门名称"></path>
            </g>
        </g>
    </g>
</svg>