<?xml version="1.0" encoding="UTF-8"?>
<svg width="13px" height="11px" viewBox="0 0 13 11" version="1.1" xmlns="http://www.w3.org/2000/svg" xmlns:xlink="http://www.w3.org/1999/xlink">
    <!-- Generator: Sketch 51.2 (57519) - http://www.bohemiancoding.com/sketch -->
    <title>筛选</title>
    <desc>Created with Sketch.</desc>
    <defs></defs>
    <g id="Page-1" stroke="none" stroke-width="1" fill="none" fill-rule="evenodd">
        <g id="2企业管理者-人员管理" transform="translate(-1573.000000, -105.000000)" fill-rule="nonzero">
            <g id="筛选" transform="translate(1565.000000, 95.000000)">
                <g transform="translate(8.000000, 10.000000)">
                    <path d="M11.3829497,0.5 L0.568111729,0.5 C0.549891604,0.5 0.535319065,0.502176685 0.522393693,0.507749203 L4.5026244,4.59581631 L4.5026244,9.25560296 L7.35386956,10.4870612 L7.37335172,10.4999859 C7.37566942,10.499995 7.37816167,10.5 7.38083671,10.5 C7.39086214,10.5 7.40269225,10.4986029 7.39797652,10.513859 C7.39496078,10.5126179 7.39198011,10.5114635 7.38903385,10.5103896 L7.39729388,10.5158694 C7.39637014,10.518381 7.39505409,10.5212869 7.39328317,10.5246489 C7.39640758,10.5226541 7.39935488,10.5208012 7.40213463,10.5190809 L7.50145183,10.5849693 C7.46597099,10.5509894 7.43413664,10.5300232 7.40541266,10.5170661 C7.42939487,10.5024307 7.43993273,10.4983835 7.44414095,10.4980489 L7.61850427,4.54218266 L11.3829497,0.5 Z M0.474782066,0.550975348 C0.47377677,0.552371224 0.472764434,0.553801827 0.471743909,0.555267858 C0.474358514,0.551511862 0.476781372,0.547977732 0.479015367,0.544641014 Z M4.5026244,9.26315477 L4.5026244,9.27450916 C4.5026244,9.26987951 4.50267249,9.26616281 4.5026244,9.26315477 Z M7.34731139,10.499554 C7.3472197,10.4995392 7.34712805,10.4995245 7.34703644,10.4995099 C7.34716714,10.4995308 7.34781885,10.4995706 7.34907746,10.4996189 Z" id="Path" stroke="#000000"></path>
                    <path d="M9.5,4.5 L12.5,4.5 C12.7761424,4.5 13,4.72385763 13,5 L13,5 C13,5.27614237 12.7761424,5.5 12.5,5.5 L9.5,5.5 C9.22385763,5.5 9,5.27614237 9,5 L9,5 C9,4.72385763 9.22385763,4.5 9.5,4.5 Z" id="Path" fill="#000000"></path>
                    <path d="M9.5,7 L12.5,7 C12.7761424,7 13,7.22385763 13,7.5 L13,7.5 C13,7.77614237 12.7761424,8 12.5,8 L9.5,8 C9.22385763,8 9,7.77614237 9,7.5 L9,7.5 C9,7.22385763 9.22385763,7 9.5,7 Z" id="Path-Copy" fill="#000000"></path>
                    <path d="M9.5,9.5 L12.5,9.5 C12.7761424,9.5 13,9.72385763 13,10 L13,10 C13,10.2761424 12.7761424,10.5 12.5,10.5 L9.5,10.5 C9.22385763,10.5 9,10.2761424 9,10 L9,10 C9,9.72385763 9.22385763,9.5 9.5,9.5 Z" id="Path-Copy-2" fill="#000000"></path>
                </g>
            </g>
        </g>
    </g>
</svg>