<?xml version="1.0" encoding="UTF-8"?>
<svg width="16px" height="13px" viewBox="0 0 16 13" version="1.1" xmlns="http://www.w3.org/2000/svg" xmlns:xlink="http://www.w3.org/1999/xlink">
    <!-- Generator: Sketch 51.2 (57519) - http://www.bohemiancoding.com/sketch -->
    <title>home</title>
    <desc>Created with Sketch.</desc>
    <defs></defs>
    <g id="Page-1" stroke="none" stroke-width="1" fill="none" fill-rule="evenodd">
        <g id="弹窗" transform="translate(-1630.000000, -156.000000)" fill-rule="nonzero">
            <g id="Group-9" transform="translate(1590.000000, 52.000000)">
                <g id="home" transform="translate(41.000000, 105.000000)">
                    <g id="Group">
                        <path d="M14.2771689,5.68893959 C13.035232,4.55757797 11.1723268,2.86053553 8.68845312,0.597812285 C7.37996406,-0.747265356 6.14546875,0.597812285 6.14546875,0.597812285 C3.68567058,2.7585667 1.84082195,4.37913252 0.61092286,5.45950972" id="Shape" stroke="#A9AAAD" stroke-width="1.5" stroke-linecap="round"></path>
                        <path d="M6.65234375,2.99815233 L2.05050727,7.196914 C2.05050727,9.9001751 2.05050727,11.1512806 2.05050727,10.9502306 C2.05050727,10.9502306 1.994576,11.4957676 2.41400937,11.4957676 C2.61145937,11.4692019 6.0165875,11.4957676 6.0165875,11.4957676 L6.0165875,8.79643587 C6.0165875,8.79643587 5.98616016,8.63903243 6.22842813,8.59646192 L8.7714125,8.59646192 C8.7714125,8.59646192 8.95811719,8.46719346 8.98336406,8.79643587 L8.98336406,11.4957528 L12.3740047,11.4957528 C12.3740047,11.4957528 12.9253906,11.5588257 13.0098453,11.0958182 L13.0098453,7.196914 L8.3475328,2.99815233 C8.34754688,2.99815233 7.39775938,2.23159263 6.65234375,2.99815233 Z" id="Shape" fill="#A9AAAD"></path>
                    </g>
                </g>
            </g>
        </g>
    </g>
</svg>