<?xml version="1.0" encoding="UTF-8"?>
<svg width="111px" height="89px" viewBox="0 0 111 89" version="1.1" xmlns="http://www.w3.org/2000/svg" xmlns:xlink="http://www.w3.org/1999/xlink">
    <!-- Generator: Sketch 51.2 (57519) - http://www.bohemiancoding.com/sketch -->
    <title>无数据</title>
    <desc>Created with Sketch.</desc>
    <defs></defs>
    <g id="Page-1" stroke="none" stroke-width="1" fill="none" fill-rule="evenodd">
        <g id="04回收站-空" transform="translate(-1015.000000, -463.000000)" fill="#000000" fill-rule="nonzero">
            <g id="无数据" transform="translate(1015.000000, 463.000000)">
                <g id="暂无数据">
                    <g id="Group">
                        <path d="M20.1729078,7.87656276 C20.1729078,8.39398165 20.4302367,8.91140054 20.9178089,9.18372045 C21.4053811,9.44242927 21.9471273,9.44242927 22.3940715,9.18372045 C22.8680989,8.92501164 23.1389726,8.43482499 23.1389726,7.87656276 C23.1389726,7.01873708 22.4753337,6.3923842 21.6627101,6.3923842 C20.8365467,6.41961682 20.1729128,7.05958168 20.1729128,7.87656276 L20.1729078,7.87656276 Z M104.306038,33.8291636 C104.306038,33.8291636 103.236089,37.4374797 101.123285,37.9548973 C101.123285,37.9548973 103.79138,39.0305835 104.306038,41.6721474 C104.306038,41.6721474 104.712348,37.8051288 107.746127,37.7370419 C107.746127,37.7370419 104.45502,35.9533137 104.306038,33.8291636 Z M109.669324,27.9197017 C109.669324,27.9197017 109.263014,29.2949463 108.450395,29.4855745 C108.450395,29.4855745 109.452625,29.8940631 109.669324,30.9016661 C109.669324,30.9016661 109.818303,29.4583347 110.969509,29.4583347 C110.969509,29.4038696 109.709953,28.6958231 109.669324,27.9196891 L109.669324,27.9197017 Z M1.23880495,38.2953066 C1.23880495,38.2953066 0.832495006,39.6705512 0.0198763667,39.8611794 C0.0198763667,39.8611794 1.02210648,40.2696681 1.23880495,41.2772711 C1.23880495,41.2772711 1.38778468,39.8339396 2.53899078,39.8339396 C2.53899078,39.8203234 1.2794342,39.1122764 1.23880495,38.2952941 L1.23880495,38.2953066 Z M78.4647138,5.72519803 C77.2864157,5.72519803 76.3519056,6.65110557 76.3519056,7.84933554 C76.3519056,9.0339519 77.2728747,9.97347306 78.4647138,9.97347306 C79.6430119,9.97347306 80.577522,9.04756551 80.577522,7.84933554 C80.5639784,6.65110306 79.6430094,5.72519803 78.4647138,5.72519803 Z" id="Shape"></path>
                        <path d="M78.4647638,9.40161354 C77.5708829,9.40161354 76.8801607,8.69356645 76.8801607,7.80851354 C76.8801607,6.92345561 77.5844314,6.21541354 78.4647638,6.21541354 C79.3180142,6.21541354 80.0493668,6.92346063 80.0493668,7.80851354 C80.0493668,8.69357147 79.3450962,9.40161354 78.4647638,9.40161354 Z M14.7011946,42.4483554 C13.5228965,42.4483554 12.5883864,43.374263 12.5883864,44.5724929 C12.5883864,45.7707254 13.5093555,46.6966305 14.7011946,46.6966305 C15.8794927,46.6966305 16.8140028,45.7707229 16.8140028,44.5724929 C16.8140028,43.3742605 15.8794902,42.4483554 14.7011946,42.4483554 Z" id="Shape"></path>
                        <path d="M14.7011946,46.1384034 C13.8073137,46.1384034 13.1165916,45.4303563 13.1165916,44.5453034 C13.1165916,43.6466293 13.8208622,42.9522034 14.7011946,42.9522034 C15.554445,42.9522034 16.2857976,43.6602505 16.2857976,44.5453034 C16.2857976,45.4303613 15.581527,46.1384034 14.7011946,46.1384034 Z M42.8855804,0.101803949 C42.8855804,0.101803949 42.1135923,2.85229309 40.4477258,3.26077673 C40.4477258,3.26077673 42.4386462,4.03690443 42.8855804,6.12019986 C42.8855804,6.12019986 43.2241716,3.15185529 45.5130466,3.11100818 C45.5401339,3.11100818 42.9532917,1.73576361 42.8855804,0.101816502 L42.8855804,0.101803949 Z M13.6989483,29.5946968 C13.6989483,29.5946968 12.9269601,32.3451859 11.2610936,32.7536695 C11.2610936,32.7536695 13.2520141,33.5297972 13.6989483,35.6130927 C13.6989483,35.6130927 14.0375395,32.6447481 16.3264144,32.603901 C16.3670454,32.603901 13.7802067,31.2558836 13.6989483,29.5947093 L13.6989483,29.5946968 Z M30.6014139,86.592481 L29.3147629,86.592481 L29.3147629,71.3014274 L30.6014139,71.1652649 L30.6014139,86.592481 Z M30.8993747,70.0078519 L29.6398181,69.5993632 L32.2672842,61.7155324 C33.4862128,58.1072163 34.6780569,54.4989002 35.856355,50.8905841 L37.1159116,51.2990728 C35.896983,54.9073889 34.7051389,58.5157049 33.5268408,62.124021 L30.8993747,70.0078519 Z" id="Shape"></path>
                        <path d="M29.3148628,71.3011763 C29.2742318,70.7020594 29.4638425,70.1846418 29.5721917,69.7080763 L29.6128227,69.5582977 L30.8723793,69.9667864 L30.8317483,70.116565 C30.6827686,70.484204 30.6150498,70.8246121 30.6150498,71.1514027 L29.314864,71.3011813 L29.3148628,71.3011763 Z M31.4141237,88.9614626 C30.9400963,88.9614626 30.3441749,88.9206138 29.8566027,88.4440437 C29.301313,87.9266249 29.301313,87.1777332 29.301313,86.6603155 L29.301313,86.5922342 L30.6285933,86.5922342 L30.6285933,86.6603155 C30.6285933,87.0007223 30.6285933,87.327513 30.7775731,87.4364432 L30.8182041,87.4772921 C30.9671838,87.6270707 31.3057762,87.6270707 31.5901922,87.6270707 L78.4783902,87.6270707 C78.7357191,87.6270707 78.8847001,87.5862218 78.9930494,87.5589893 L79.0336804,87.5181405 C79.0743114,87.4772916 79.1013986,87.3683619 79.1826601,87.0415712 L79.1826601,71.3828434 C79.1826601,71.164983 79.1826601,70.8926568 79.1420291,70.7156459 C78.2887787,68.155785 77.4084438,65.5414571 76.5958214,62.9815961 C75.2956356,59.0737179 74.0496138,55.179472 72.7087862,51.3124409 C72.641068,51.0945804 72.4514573,50.9039522 72.1941271,50.9039522 L38.1860494,50.9039522 C37.969351,50.9039522 37.6713903,50.9039522 37.4817788,50.9448011 C37.3327991,50.9856499 37.2244498,51.1354293 37.1431876,51.2852079 L35.883631,50.8767192 C36.0732425,50.2776023 36.5472699,49.8010331 37.1431876,49.6512545 C37.5088658,49.5831731 37.8880887,49.5831731 38.1725059,49.5831731 L72.1263946,49.5831731 C72.8983827,49.5423242 73.6839156,50.100592 73.9006091,50.8903308 C75.2007949,54.7982091 76.4468167,58.6924549 77.7876443,62.5594861 C78.6408947,65.119347 79.5212296,67.7336749 80.333852,70.2935359 L80.333852,70.3343847 C80.4015702,70.7020238 80.4015702,71.0832802 80.4015702,71.4100709 L80.4015702,86.9870793 C80.4015702,87.6542768 80.2119587,88.1036138 79.8462805,88.4440181 C79.3587083,88.9205874 78.7357012,88.961437 78.4106472,88.961437 L31.4141962,88.961437 L31.4141237,88.9614626 Z" id="Shape"></path>
                        <path d="M54.8580979,79.4437348 C53.3818353,79.4437348 51.864956,78.9671656 50.6460162,78.0684903 C48.9124309,76.8021797 47.8018441,74.8005835 47.6935036,72.676446 C47.6935036,72.4858178 47.6528726,72.1181787 47.5445239,72.0092485 L47.5038929,71.9683996 C47.4632619,71.9275508 47.2871944,71.9003183 47.0163207,71.9003183 L32.5652195,71.9003183 C32.1995413,71.9003183 31.9015805,71.6416095 31.9015805,71.2331208 C31.9015805,70.8654818 32.1589095,70.5659233 32.5652195,70.5659233 L47.0569,70.5659233 C47.5444722,70.5659233 48.0591301,70.6340047 48.4654388,71.05611 C49.0207285,71.5462966 49.0613602,72.2815747 49.0613602,72.64921 C49.1290785,74.3648639 50.0635903,76.0260507 51.4721329,77.0336462 C52.5420817,77.8097739 53.9099876,78.2182626 55.2101859,78.1501807 C56.7677069,78.1093319 58.2845987,77.374053 59.2732853,76.1758243 C60.1671662,75.16822 60.6818241,73.8338188 60.7089186,72.5675082 C60.7089186,72.2271014 60.7495496,71.5599039 61.2642083,71.1241768 C61.6705182,70.6339901 62.2935266,70.6067579 62.6998416,70.5659095 L77.1915221,70.5659095 C77.5572003,70.5659095 77.855161,70.8246183 77.855161,71.233107 C77.855161,71.600746 77.5978321,71.9003045 77.1915221,71.9003045 L62.7404209,71.9003045 C62.4018297,71.9003045 62.2528487,71.9411533 62.2257617,71.9683858 L62.1851307,72.0092347 C62.1174125,72.0773161 62.036151,72.4177234 62.036151,72.5266536 C61.99552,74.1606132 61.3725121,75.7673331 60.2619365,76.9927966 C59.0023799,78.4361281 57.1875236,79.3348021 55.2643269,79.4437235 C55.0882589,79.3756422 55.0069979,79.4437235 54.858017,79.4437235 L54.8580979,79.4437348 Z M68.6590562,23.8620423 L75.2818981,26.871234 L86.1980801,18.2385102 L77.9093642,27.2524904 L86.1980801,30.0438267 L90.7893847,13.2004825 L68.6590562,23.8620298 L68.6590562,23.8620423 Z M77.8281057,29.3221735 L77.3811653,34.4146681 L80.2253374,30.6565709 L77.828112,29.3221735 L77.8281057,29.3221735 Z M50.6459663,55.8058872 C48.939463,56.7317947 47.6934537,57.2492186 47.6934537,57.2492186 L47.9507826,57.9981141 C47.9914136,57.9981141 49.2509684,57.4806952 50.9845662,56.5139355 L50.645975,55.8058884 L50.6459663,55.8058872 Z M54.3840192,53.2732535 C53.6120311,53.8723703 52.7994162,54.4987182 51.9461646,55.0161346 C51.7565531,55.1659131 51.7294661,55.3837736 51.7971848,55.5744018 C51.9461646,55.76503 52.162863,55.7922623 52.3524745,55.7241804 C53.2463554,55.1659131 54.0860598,54.539564 54.8716002,53.9404522 C54.9393184,53.8723708 55.0612116,53.7225917 55.0205799,53.5728131 C55.0205799,53.4230346 54.8716002,53.3141043 54.8038814,53.2324063 C54.6413569,53.2051737 54.4923772,53.2051737 54.384028,53.2732552 L54.3840192,53.2732535 Z M58.6773594,49.1475197 C58.4877479,48.9977412 58.2710494,49.0794384 58.1220697,49.2156011 C57.4584308,50.1415087 56.7135309,51.0401764 55.8331973,51.8980034 C55.6842175,52.047782 55.6842175,52.306492 55.8331973,52.4562706 C55.982177,52.6060492 56.2395072,52.6060492 56.388487,52.4562706 C57.3094561,51.5575966 58.1220722,50.6316953 58.7992596,49.6240873 C58.8398906,49.5560059 58.8669779,49.433459 58.8398906,49.3653784 C58.8534342,49.3381458 58.785716,49.2155999 58.6773661,49.147518 L58.6773594,49.1475197 Z M60.5192976,40.555643 C60.5192976,40.7054216 60.5870159,40.8143518 60.7359961,40.8960498 C60.8849758,40.9368987 60.9933251,40.9368987 61.1423061,40.855201 C61.2100243,40.7871196 61.3319175,40.6373405 61.2912858,40.4875619 C61.1016743,38.7038337 60.4380354,37.3285891 59.4087183,36.4299151 C59.2191068,36.2801365 59.0024083,36.3618337 58.8534286,36.4707639 C58.7044489,36.6205425 58.7044489,36.8792526 58.8940596,37.0290312 C59.8150287,37.7370783 60.3703222,38.9625405 60.5193044,40.5556531 L60.5192976,40.555643 Z M54.0454255,36.5796904 C54.0860565,36.5796904 54.1131438,36.5796904 54.235037,36.5388415 C55.3049859,36.0486549 56.4968274,35.9397247 57.4855141,36.1984347 C57.7022125,36.2392836 57.891824,36.1575859 58.0001732,35.9397259 C58.0408042,35.7218655 57.9595422,35.5312373 57.7428443,35.422307 C56.5239157,35.0819002 55.1966366,35.2044466 53.964162,35.7627138 C53.7745506,35.8307952 53.7068331,36.0214227 53.7474636,36.2529005 C53.7203762,36.389063 53.8693564,36.5796912 54.0454243,36.5796912 L54.0454255,36.5796904 Z M51.9055228,40.5964901 C51.8378046,40.2560833 51.8378046,39.9292927 51.8648918,39.5888859 L52.23057,38.3634211 C52.4201815,38.0230143 52.5962482,37.7643043 52.8264915,37.5055954 C52.9754712,37.3558169 52.9754712,37.0971068 52.8264915,36.9473282 C52.6775117,36.7975496 52.4201815,36.7975496 52.2712018,36.9473282 C51.2418834,38.0230143 50.8355685,39.3982551 51.1606224,40.8143468 C51.2012534,41.0322073 51.4179514,41.1547536 51.6346499,41.0730556 C51.8242613,41.045823 51.9732411,40.7871133 51.9055236,40.5964864 L51.9055228,40.5964901 Z M52.0138721,42.0125818 C51.8242606,42.1623604 51.7971736,42.3802208 51.9461538,42.5708491 C52.3524638,43.1699659 52.9483839,43.7963138 53.5713986,44.3545773 C53.7880971,44.5452055 54.0860578,44.7630659 54.3162997,44.9536941 C54.5059112,45.1034727 54.7226097,45.0217755 54.8715894,44.8856128 C55.0205691,44.6949846 54.9393077,44.4771241 54.8038712,44.3273455 L54.0996005,43.7690783 C53.5036791,43.2516594 52.9890212,42.6933921 52.623338,42.1351186 C52.420183,41.8900259 52.2034845,41.8627924 52.0138731,42.0125721 L52.0138721,42.0125818 Z M58.2710382,46.5467992 C58.4606497,46.5467992 58.6367164,46.3970206 58.6367164,46.1791601 C58.6367164,45.9885319 58.4877367,45.8115211 58.2981252,45.7706715 C57.5261371,45.7025901 56.7406042,45.4030324 55.968611,45.021776 C55.7789996,44.9536946 55.5623011,45.021776 55.4539519,45.2124042 C55.3862336,45.4030324 55.4539519,45.6208929 55.6435633,45.7298231 C56.4968137,46.1383117 57.3500666,46.4378702 58.189771,46.5876488 L58.271033,46.5467999 C58.271033,46.5876488 58.271033,46.5467999 58.271033,46.5467999 L58.2710382,46.5467992 Z M61.2641801,45.5800432 C61.1152003,45.6208921 60.9255889,45.6481246 60.7766079,45.7298218 C61.0339368,44.8039143 61.2641801,43.7963125 61.3318975,42.8703987 C61.3318975,42.8023173 61.2912666,42.6797705 61.2641793,42.6116899 C61.2235483,42.5436085 61.0745678,42.4619113 61.0068503,42.4619113 C60.7901519,42.4619113 60.6005404,42.6116899 60.6005404,42.8295503 C60.5328222,43.8643881 60.3432114,44.9128407 59.9369015,45.8796017 C59.7879218,45.8796017 59.5983103,45.8796017 59.4493293,45.9204505 C59.2326308,45.9204505 59.0836511,46.1110788 59.0836511,46.2880896 C59.0836511,46.50595 59.2732626,46.6557286 59.4899611,46.6557286 L59.6389408,46.6557286 C59.4899611,47.0233677 59.3003496,47.4046241 59.1242816,47.7722631 C59.0565634,47.9628913 59.1242816,48.1807518 59.3138931,48.289682 C59.5035045,48.3577634 59.720203,48.3305309 59.8285523,48.1399034 C60.0858812,47.6224845 60.3432114,47.1050657 60.5328229,46.5740306 C60.8714141,46.5331818 61.1964618,46.4242521 61.535053,46.3561702 C61.7517515,46.3153213 61.8736442,46.0974614 61.792382,45.8796009 C61.7382074,45.6208921 61.4808778,45.4711123 61.2641793,45.5800425 L61.2641801,45.5800432 Z M65.9231959,42.788707 C65.0022268,43.5648347 64.1083522,44.2728856 63.1873768,44.7630634 C62.9977653,44.8311448 62.9300478,45.1034702 63.0383971,45.3213307 C63.1061153,45.5119589 63.3769883,45.5800395 63.5936867,45.4711093 C64.5146559,44.9536904 65.5168835,44.2456445 66.4784881,43.3878188 C66.5462063,43.3197375 66.6274678,43.1699584 66.6274678,43.0201798 C66.5868368,42.8704012 66.4784881,42.761471 66.3701389,42.761471 C66.1805274,42.6797733 66.0315476,42.7206221 65.9231984,42.7887036 L65.9231959,42.788707 Z M69.9862954,38.8127544 C69.9185771,38.7719055 69.7966839,38.744673 69.7289664,38.744673 C69.6612481,38.744673 69.5393549,38.7855219 69.4716374,38.8944516 C68.8079985,39.7931257 68.1037279,40.6373327 67.3994585,41.3453786 C67.2504787,41.4951571 67.2504787,41.7538672 67.4400895,41.9036458 C67.5890692,42.0534244 67.8463994,42.0534244 67.9953791,41.9036458 C68.6996498,41.1547503 69.4039179,40.3105458 70.1081873,39.3710121 C70.1488183,39.3029307 70.1759056,39.1803839 70.1759056,39.1123033 C70.1352746,38.9897568 70.0946436,38.8808267 69.9862941,38.8127448 L69.9862954,38.8127544 Z M73.2774017,33.6794126 C73.2096834,33.6385638 73.0877902,33.6385638 73.0200727,33.6385638 C72.9523544,33.6794126 72.8304612,33.7066451 72.8033742,33.829192 C72.2074528,34.9457265 71.5031884,36.0214164 70.8124537,37.0698715 C70.7447355,37.2196501 70.7447355,37.3285803 70.7718228,37.4783602 C70.8124537,37.6281388 70.9614342,37.6962206 71.110414,37.6962206 C71.2593937,37.6962206 71.3677429,37.6553718 71.4760922,37.5055924 C72.1803628,36.4299063 72.884631,35.313368 73.5482711,34.1559914 C73.5889021,34.0879101 73.5889021,33.9653632 73.5889021,33.8972826 C73.4670093,33.7883524 73.3586601,33.747504 73.2773979,33.6794222 L73.2774017,33.6794126 Z M75.7965273,28.586918 C75.7288091,28.5460691 75.6069158,28.5460691 75.4579361,28.586918 C75.3902179,28.6277669 75.2683246,28.6549994 75.2412376,28.8047784 C75.2412376,28.8047784 74.7265784,30.0302432 73.8326988,31.8139701 C73.7649806,32.0045983 73.7920678,32.2224588 74.0223103,32.331389 C74.2119218,32.3994704 74.4286202,32.3722379 74.5369695,32.1407608 C75.4579386,30.3570326 75.9726028,29.1315691 75.9726028,29.0907095 C76.0538648,28.9136974 75.9861464,28.6549886 75.7965348,28.5869067 L75.7965273,28.586918 Z" id="Shape"></path>
                    </g>
                </g>
            </g>
        </g>
    </g>
</svg>