<?xml version="1.0" encoding="UTF-8"?>
<svg width="44px" height="44px" viewBox="0 0 44 44" version="1.1" xmlns="http://www.w3.org/2000/svg" xmlns:xlink="http://www.w3.org/1999/xlink">
    <!-- Generator: Sketch 51.2 (57519) - http://www.bohemiancoding.com/sketch -->
    <title>loading</title>
    <desc>Created with Sketch.</desc>
    <defs></defs>
    <g id="Page-1" stroke="none" stroke-width="1" fill="none" fill-rule="evenodd">
        <g id="企业管理-容量管理" transform="translate(-430.000000, -395.000000)" fill-rule="nonzero">
            <g id="loading" transform="translate(430.000000, 395.000000)">
                <g id="Group" transform="translate(0.000000, 0.042927)">
                    <path d="M19.2674795,2.78989 L19.2674795,2.78988967 C19.2674793,4.32986286 20.5158725,5.57826006 22.0558456,5.57826006 C23.5958188,5.57826029 24.844216,4.32986716 24.844216,2.78989396 C24.844216,2.78989391 24.844216,2.78989384 24.844216,2.78989379 C24.844216,1.2499206 23.5958231,0.00152769193 22.0558499,0.00152769193 C20.5158767,0.00152769193 19.2674838,1.2499206 19.2674838,2.78989379 L19.2674795,2.78989 Z" id="Shape" fill="#8198FC"></path>
                    <path d="M20.0838185,43.0903511 C21.1726526,44.1793655 22.9381503,44.1795114 24.0271646,43.0906775 C25.1161789,42.0018435 25.1163248,40.2363457 24.0274908,39.1473315 C24.0273591,39.1471997 24.0272274,39.147068 24.0270956,39.1469362 C22.9382616,38.0579219 21.1727639,38.057776 20.0837496,39.1466098 C18.9947353,40.2354438 18.9945893,42.0009415 20.0834232,43.0899558 C20.0835549,43.0900876 20.0836867,43.0902193 20.0838184,43.090351 Z" id="Shape" fill="#9AB9F6"></path>
                    <path d="M38.3582724,21.947228 L38.3582724,21.9475735 C38.3582721,23.4875467 39.6066653,24.7359439 41.1466385,24.7359439 C42.6866117,24.7359441 43.9350089,23.487551 43.9350089,21.9475778 C43.9350089,21.9473472 43.9350088,21.9471165 43.9350088,21.9468859 L43.9350088,21.9465399 C43.9350088,20.4065667 42.6866159,19.1581738 41.1466427,19.1581738 C39.6066695,19.1581738 38.3582766,20.4065667 38.3582766,21.9465399 C38.3582766,21.9467705 38.3582766,21.9470012 38.3582767,21.9472318 L38.3582724,21.947228 Z" id="Shape" fill="#C5D6F7"></path>
                    <path d="M7.85131172e-05,21.947228 L7.85131172e-05,21.9472284 C7.87456466e-05,23.4872016 1.24847571,24.7355945 2.7884489,24.7355945 C4.3284221,24.7355943 5.576815,23.4871973 5.576815,21.9472241 C5.576815,20.4072509 4.3284221,19.158858 2.7884489,19.158858 C1.24847571,19.158858 8.28057972e-05,20.4072509 8.28057972e-05,21.9472241 L7.85131172e-05,21.947228 Z" id="Shape" fill="#7EA5F5"></path>
                    <path d="M32.7929845,8.4649074 L32.7929845,8.46490782 C32.7929847,10.004881 34.0413817,11.2532739 35.5813549,11.2532739 C37.1213281,11.2532737 38.369721,10.0048767 38.369721,8.46490353 C38.369721,6.92493033 37.1213281,5.67653743 35.5813549,5.67653743 C34.0413817,5.67653743 32.7929888,6.92493033 32.7929888,8.46490353 L32.7929845,8.4649074 Z" id="Shape" fill="#E1E9F8"></path>
                    <path d="M8.35299723,38.3513612 C9.89138654,38.4211503 11.1950777,37.2306111 11.2648638,35.6922219 C11.3346529,34.1538327 10.1441138,32.8501415 8.60572459,32.7803554 C8.6056778,32.7803533 8.60563101,32.7803512 8.60558422,32.780349 C7.067195,32.7105599 5.76350379,33.9010948 5.6937177,35.4394883 C5.62392859,36.9778775 6.81446347,38.2815687 8.35285696,38.3513548 C8.35290374,38.3513569 8.35295053,38.3513591 8.35299732,38.3513612 Z" id="Shape" fill="#8CAFF5"></path>
                    <path d="M32.7458938,35.5103797 L32.7458938,35.5103801 C32.745894,37.0503533 33.994291,38.2987462 35.5342642,38.2987462 C37.0742374,38.298746 38.3226303,37.050349 38.3226303,35.5103758 C38.3226303,33.9704026 37.0742374,32.7220097 35.5342642,32.7220097 C33.994291,32.7220097 32.7458981,33.9704026 32.7458981,35.5103758 L32.7458938,35.5103797 Z" id="Shape" fill="#A8C2F6"></path>
                    <path d="M5.62255226,8.38708111 L5.62255226,8.38708075 C5.62255203,9.92705394 6.87094517,11.1754511 8.41091836,11.1754511 C9.95089156,11.1754514 11.1992888,9.92705823 11.1992888,8.38708504 C11.1992888,8.387085 11.1992888,8.38708496 11.1992888,8.38708492 C11.1992888,6.84711173 9.95089585,5.59871882 8.41092266,5.59871882 C6.87094946,5.59871882 5.62255656,6.84711173 5.62255656,8.38708492 L5.62255226,8.38708111 Z" id="Shape" fill="#6F9CF4"></path>
                </g>
            </g>
        </g>
    </g>
</svg>