<?xml version="1.0" encoding="UTF-8"?>
<svg width="14px" height="14px" viewBox="0 0 14 14" version="1.1" xmlns="http://www.w3.org/2000/svg" xmlns:xlink="http://www.w3.org/1999/xlink">
    <!-- Generator: Sketch 51.2 (57519) - http://www.bohemiancoding.com/sketch -->
    <title>移交管理员</title>
    <desc>Created with Sketch.</desc>
    <defs></defs>
    <g id="Page-1" stroke="none" stroke-width="1" fill="none" fill-rule="evenodd">
        <g id="1企业管理者" transform="translate(-28.000000, -432.000000)" fill="#9C9C9C" fill-rule="nonzero">
            <g id="1-copy-8" transform="translate(0.000000, 416.000000)">
                <g id="移交管理员" transform="translate(28.000000, 16.000000)">
                    <path d="M10.5640987,7.12956186 C8.66626259,7.12956186 7.12818361,8.66538027 7.12818361,10.5604393 C7.12818361,12.4554708 8.66626259,13.991303 10.5640987,13.991303 C12.461921,13.991303 14,12.4549324 14,10.5604393 C14,8.66539407 12.461921,7.12956186 10.5640987,7.12956186 Z M10.6826219,11.8602658 L10.6826219,11.1814868 L8.76209279,11.1814868 L8.76209279,9.91615846 L10.6826219,9.91615846 L10.6826219,9.23736574 L12.4244817,10.5488158 L10.6826219,11.8602658 Z M6.46853899,10.5604531 C6.46853899,9.76808885 6.69929714,9.03006 7.09171175,8.402897 C7.07702073,8.28660589 7.09605133,8.14637737 7.17879368,7.9724791 C7.61583416,7.38661987 7.88143337,6.7219632 7.9026614,6.50458 C7.9026614,6.50458 8.57591905,5.97578955 8.61456071,5.1817963 C8.65646397,4.3899842 8.46705627,4.35302892 8.46705627,4.35302892 C8.74951629,3.48945979 8.84097927,0.248259395 6.75754985,0.635206172 C6.40974729,-0.0446771244 4.23271273,-0.577816067 3.21820336,1.23355869 C2.71204738,2.13678883 2.52373149,3.36935858 2.91886871,4.37584815 C2.90471668,4.45084928 2.77953208,4.30247597 2.73380059,4.7676956 C2.68972754,5.21604585 2.89164265,5.85842168 3.112077,6.15676966 C3.20731293,6.28232374 3.36078776,6.37415285 3.46801974,6.42089569 C3.46801974,6.42089569 3.59972754,7.21925124 4.2239921,7.97249291 C4.36766831,8.56975485 3.77389141,8.88497222 3.77389141,8.88497222 C1.8074926,9.26265602 0,10.3528299 0,11.532141 C0,11.619097 0,12.4457109 0,12.4457109 C0,13.7255618 2.98472261,14 5.67174136,14 C6.48159921,14 7.3154077,13.9288228 8.08716288,13.8092599 C7.10531096,13.0614435 6.46853899,11.8854042 6.46853899,10.5604531 Z" id="Shape"></path>
                </g>
            </g>
        </g>
    </g>
</svg>