<?xml version="1.0" encoding="UTF-8"?>
<svg width="15px" height="11px" viewBox="0 0 15 11" version="1.1" xmlns="http://www.w3.org/2000/svg" xmlns:xlink="http://www.w3.org/1999/xlink">
    <!-- Generator: Sketch 51.2 (57519) - http://www.bohemiancoding.com/sketch -->
    <title>部门</title>
    <desc>Created with Sketch.</desc>
    <defs></defs>
    <g id="Page-1" stroke="none" stroke-width="1" fill="none" fill-rule="evenodd">
        <g id="1企业管理者" transform="translate(-27.000000, -134.000000)" fill="#9C9C9C" fill-rule="nonzero">
            <g id="1-copy-2" transform="translate(0.000000, 116.000000)">
                <g id="部门" transform="translate(27.000000, 18.000000)">
                    <g id="Group">
                        <path d="M9.375,2.87221745 C9.375,3.05555078 9.25000005,3.17777253 9.06250049,3.17777253 L5.93750537,3.17777253 C5.75000537,3.17777254 5.62500586,3.05555035 5.62500586,2.87221745 L5.62500586,0.366666667 C5.62500586,0.183333333 5.75000581,1.22124675e-15 5.93750537,1.22124675e-15 L9.06250049,1.22124675e-15 C9.25000049,1.22124675e-15 9.375,0.183333333 9.375,0.366666667 L9.375,2.87221745 Z" id="Shape"></path>
                        <path d="M9.375,10.6333333 C9.375,10.8166667 9.25000005,10.9388884 9.06250049,10.9388884 L5.93750537,10.9388884 C5.75000537,10.9999996 5.62500586,10.8166662 5.62500586,10.6333333 L5.62500586,8.12778255 C5.62500586,7.94444922 5.75000581,7.82222747 5.93750537,7.82222747 L9.06250049,7.82222747 C9.25000049,7.82222747 9.375,7.94444965 9.375,8.12778255 L9.37500001,10.6333333 Z" id="Shape"></path>
                        <path d="M15,10.6333333 C15,10.8166667 14.875,10.9388884 14.6875005,10.9388884 L11.5625054,10.9388884 C11.3750054,10.9388884 11.2500059,10.8166662 11.2500059,10.6333333 L11.2500059,8.12778255 C11.2500059,7.94444922 11.3750058,7.82222747 11.5625054,7.82222747 L14.6875005,7.82222747 C14.8750005,7.82222747 15,7.94444965 15,8.12778255 L15,10.6333333 Z" id="Shape"></path>
                        <path d="M3.75,10.6333333 C3.75,10.8166667 3.62500005,11 3.43750049,11 L0.312505371,11 C0.125005371,11 5.85938182e-06,10.8166667 5.85938182e-06,10.6333333 L5.85938182e-06,8.12778255 C5.85938182e-06,7.94444922 0.125005811,7.82222747 0.312505371,7.82222747 L3.43750049,7.82222747 C3.62500049,7.82222746 3.75,7.94444965 3.75,8.12778255 L3.75,10.6333333 Z" id="Shape"></path>
                        <polygon id="Shape" points="8.0625 4.58333333 8.0625 3.66666667 6.9375 3.66666667 6.9375 4.58333333 1.37500488 4.58333333 1.37500488 5.74444492 1.37500488 5.80555608 1.37500488 7.33333863 2.43750439 7.33333863 2.43750439 5.80555608 6.93750439 5.80555608 6.93750439 7.33333863 8.06250439 7.33333863 8.06250439 5.80555608 12.4999995 5.80555608 12.4999995 7.33333863 13.6249995 7.33333863 13.6249995 5.80555608 13.6249995 5.74444492 13.6249995 4.58333333 8.06250439 4.58333335"></polygon>
                    </g>
                </g>
            </g>
        </g>
    </g>
</svg>