<?xml version="1.0" encoding="UTF-8"?>
<svg width="14px" height="13px" viewBox="0 0 14 13" version="1.1" xmlns="http://www.w3.org/2000/svg" xmlns:xlink="http://www.w3.org/1999/xlink">
    <!-- Generator: Sketch 51.2 (57519) - http://www.bohemiancoding.com/sketch -->
    <title>退出 </title>
    <desc>Created with Sketch.</desc>
    <defs></defs>
    <g id="Page-1" stroke="none" stroke-width="1" fill="none" fill-rule="evenodd">
        <g id="弹窗" transform="translate(-1634.000000, -185.000000)" fill="#A9AAAD" fill-rule="nonzero">
            <g id="Group-9" transform="translate(1590.000000, 43.000000)">
                <g id="退出-" transform="translate(44.000000, 142.000000)">
                    <path d="M9.89684145,3.18053615 C9.78475924,3.10015925 9.65136634,3.05480728 9.5135183,3.05021068 C9.14275454,3.03998994 8.833904,3.33225778 8.82368284,3.70300823 C8.82362316,3.70517313 8.82357395,3.70733829 8.82353521,3.70950366 L8.82353521,4.361131 L8.82353522,4.36113228 C8.82471841,4.53487224 8.69025363,4.6794154 8.51687468,4.6907772 L6.52359748,4.6907772 C6.15129173,4.6830639 5.84282303,4.97781173 5.8336149,5.35007042 L5.8336149,7.64993362 L5.83361488,7.64993284 C5.84282307,8.02219153 6.15129059,8.3169391 6.52359631,8.30922718 L8.51688475,8.30922718 C8.69026257,8.32058955 8.82472789,8.46513327 8.82354417,8.63887323 L8.82354417,9.29050058 L8.82354414,9.29049933 C8.83017711,9.66133176 9.13618396,9.95657347 9.50702968,9.94994079 C9.50919513,9.94990206 9.51136037,9.94985286 9.51352534,9.94979318 C9.65137335,9.94519664 9.78476725,9.89984473 9.89684845,9.81946771 L13.2700998,7.0826295 C13.5766334,6.75468145 13.5766334,6.24531525 13.2700997,5.91736275 L9.89684145,3.18053615 Z M1.73366472,1.73360405 L1.73366472,11.2663981 L10.4001505,11.2663981 L10.4001505,12.1330156 L10.4001505,12.1330167 C10.4137505,12.5980364 10.0477889,12.9860337 9.5827538,12.9996329 C9.56633984,13.0001129 9.54991535,13.0001129 9.5335014,12.9996329 L0.867015677,12.9996329 C0.40197935,13.0132331 0.0139680925,12.6472852 0.000367137675,12.1822667 C-0.000112912677,12.1658534 -0.000112913947,12.1494295 0.000367135866,12.1330161 L0.000367135866,0.866984528 L0.000367100181,0.866983308 C-0.0132328389,0.40196361 0.352728697,0.0139662545 0.817763788,0.000367056609 C0.83417774,-0.000112952422 0.850602229,-0.00011292957 0.867016181,0.00036712779 L9.53350191,0.00036712779 C9.99853826,-0.0132330856 10.3865495,0.352714831 10.4001505,0.817734529 C10.4006305,0.834147893 10.4006305,0.850571793 10.4001505,0.866985157 L10.4001505,1.73360268 L1.73366475,1.73360268 L1.73366472,1.73360405 Z" id="Shape"></path>
                </g>
            </g>
        </g>
    </g>
</svg>