<?xml version="1.0" encoding="UTF-8"?>
<svg width="32px" height="32px" viewBox="0 0 32 32" version="1.1" xmlns="http://www.w3.org/2000/svg" xmlns:xlink="http://www.w3.org/1999/xlink">
    <!-- Generator: Sketch 51.2 (57519) - http://www.bohemiancoding.com/sketch -->
    <title>公司</title>
    <desc>Created with Sketch.</desc>
    <defs></defs>
    <g id="Page-1" stroke="none" stroke-width="1" fill="none" fill-rule="evenodd">
        <g id="2企业管理者-人员管理" transform="translate(-250.000000, -102.000000)" fill="#585A5C" fill-rule="nonzero">
            <g id="Group-3-Copy" transform="translate(248.000000, 95.000000)">
                <g id="公司" transform="translate(2.000000, 7.000000)">
                    <path d="M31.3599976,5.39814129e-08 L13.439999,5.39814129e-08 C13.086249,0.000979982235 12.799999,0.288026958 12.799999,0.641778243 L12.799999,15.3599984 L0.639999978,15.3599984 C0.286537478,15.3599985 0,15.6465363 0,15.9999985 C0,15.9999985 0,15.9999985 0,15.9999985 L0,31.36 C-5.33712387e-08,31.7134625 0.28653779,32 0.63999995,32 L31.3599976,32 C31.71346,32 31.9999975,31.7134622 31.9999975,31.3599999 C31.9999975,31.3599999 31.9999975,31.3599999 31.9999975,31.3599999 L31.9999975,0.641778146 L31.9999975,0.64176813 C32.0009738,0.28830872 31.7152288,0.000980566504 31.3617663,2.44140761e-06 C31.3611729,8.02398069e-07 31.3605795,-1.13645112e-08 31.3599862,1.19864933e-10 L31.3599976,5.39814129e-08 Z M5.75999959,26.2400027 L3.19999979,26.2400027 L3.19999979,23.6800024 L5.75999959,23.6800024 L5.75999959,26.2400027 Z M5.75999959,21.1200021 L3.19999979,21.1200021 L3.19999979,18.5600019 L5.75999959,18.5600019 L5.75999959,21.1200021 Z M10.8782179,26.2400027 L8.31999627,26.2400027 L8.31999627,23.6800024 L10.8782179,23.6800024 L10.8782179,26.2400027 Z M10.8782179,21.1200021 L8.31999627,21.1200021 L8.31999627,18.5600019 L10.8782179,18.5600019 L10.8782179,21.1200021 Z M21.1217796,3.20000037 L23.6800013,3.20000037 L23.6800013,5.7582225 L21.1217796,5.7582225 L21.1217796,3.20000037 Z M21.1217796,8.32000088 L23.6800013,8.32000088 L23.6800013,10.8800011 L21.1217796,10.8800011 L21.1217796,8.32000088 Z M21.1217796,13.4400014 L23.6800013,13.4400014 L23.6800013,16.0000016 L21.1217796,16.0000016 L21.1217796,13.4400014 Z M21.1217796,18.5600019 L23.6800013,18.5600019 L23.6800013,21.1200021 L21.1217796,21.1200021 L21.1217796,18.5600019 Z M18.5600017,21.1200021 L16.0000019,21.1200021 L16.0000019,18.5600019 L18.5600017,18.5600019 L18.5600017,21.1200021 Z M18.5600017,16.0000016 L16.0000019,16.0000016 L16.0000019,13.4400014 L18.5600017,13.4400014 L18.5600017,16.0000016 Z M18.5600017,10.8800011 L16.0000019,10.8800011 L16.0000019,8.32000088 L18.5600017,8.32000088 L18.5600017,10.8800011 Z M18.5600017,5.75821937 L16.0000019,5.75821937 L16.0000019,3.19999725 L18.5600017,3.19999725 L18.5600017,5.75821937 Z M24.9600012,30.7182218 L19.8400016,30.7182218 L19.8400016,26.2400027 L24.9600012,26.2400027 L24.9600012,30.7182218 Z M28.8000009,21.1182209 L26.2400011,21.1182209 L26.2400011,18.5599988 L28.8000009,18.5599988 L28.8000009,21.1182209 Z M28.8000009,15.9982204 L26.2400011,15.9982204 L26.2400011,13.4399983 L28.8000009,13.4399983 L28.8000009,15.9982204 Z M28.8000009,10.8782199 L26.2400011,10.8782199 L26.2400011,8.31999775 L28.8000009,8.31999775 L28.8000009,10.8782199 Z M28.8000009,5.75643812 L26.2400011,5.75643812 L26.2400011,3.19999412 L28.8000009,3.19999412 L28.8000009,5.75643812 Z" id="Shape"></path>
                </g>
            </g>
        </g>
    </g>
</svg>