<?xml version="1.0" encoding="UTF-8"?>
<svg width="13px" height="13px" viewBox="0 0 13 13" version="1.1" xmlns="http://www.w3.org/2000/svg" xmlns:xlink="http://www.w3.org/1999/xlink">
    <!-- Generator: Sketch 51.2 (57519) - http://www.bohemiancoding.com/sketch -->
    <title>人员管理</title>
    <desc>Created with Sketch.</desc>
    <defs></defs>
    <g id="Page-1" stroke="none" stroke-width="1" fill="none" fill-rule="evenodd">
        <g id="1企业管理者" transform="translate(-29.000000, -222.000000)" fill="#9C9C9C" fill-rule="nonzero">
            <g id="1-copy" transform="translate(0.000000, 206.000000)">
                <g id="人员管理" transform="translate(29.000000, 16.000000)">
                    <path d="M8.21582158,12.0209071 L8.14970044,11.9914433 L8.05753161,11.9347945 C7.64123062,11.748245 7.3471533,11.3106827 7.3471533,10.8111002 L7.3471533,10.3165633 C7.3471533,9.96820653 7.4826327,9.65484801 7.69979967,9.43346236 C7.69979967,9.43346236 7.84776333,9.26872571 7.90448239,9.22282035 C7.98832829,9.1607998 8.21828786,9.1093602 8.21828786,9.1093602 C8.09313554,8.63126503 8.25897773,8.10710235 8.63952088,7.81278943 C7.99446667,7.38529642 7.24834101,7.15859774 6.48681154,7.15872475 L4.07114992,7.15872475 C1.82627365,7.15872475 0,9.09307914 0,11.4674483 L0,11.7241578 C0,12.9665226 1.79760259,12.9665226 4.07114992,12.9665226 L6.48696506,12.9665226 C7.13815765,12.9665226 7.7640734,12.9665226 8.32063357,12.933966 C8.17503039,12.6554449 8.13745735,12.3281119 8.2158262,12.0209137 M5.15899982,6.82893108 C6.93626017,6.82893108 8.38182665,5.29729751 8.38182665,3.41454662 C8.38182665,1.53179573 6.93626017,0 5.15899982,0 C3.38112538,0 1.93308967,1.53179573 1.93308967,3.41454662 C1.93308967,5.29729751 3.38112538,6.82893108 5.15899982,6.82893108 M12.6612096,9.91010205 C12.3313747,9.88552167 12.0786036,9.60162687 12.0786036,9.26124644 C12.0786036,9.15576275 12.1014146,9.05858074 12.1471908,8.96921304 C12.2316533,8.78266348 12.1700018,8.54744123 11.9939868,8.4419574 L11.7868387,8.31221884 L11.5873963,8.19078225 C11.4113821,8.08529855 11.1966805,8.14210997 11.0817008,8.31221884 C10.9742732,8.49062994 10.7823831,8.60409009 10.5675279,8.60409009 C10.353443,8.60409009 10.1615529,8.49062994 10.0541253,8.31221884 C9.93914541,8.1421097 9.72444395,8.0854607 9.54781307,8.19078225 L9.33372814,8.31221884 L9.13428579,8.43414377 C8.95765491,8.53946478 8.8966192,8.77468635 8.98108176,8.96123727 C9.02685797,9.05060537 9.04966893,9.14778684 9.04966893,9.25310852 C9.04966893,9.60179091 8.7968979,9.87754603 8.46706299,9.90212627 L8.46706299,9.91010267 C8.26762064,9.92621826 8.11441662,10.0966522 8.11441662,10.3154341 L8.11441662,10.8102967 C8.11441662,11.0209387 8.27517287,11.1995119 8.46706299,11.215628 L8.47476942,11.2237672 C8.79689857,11.2402083 9.04982313,11.5237769 9.04982313,11.872785 C9.04982313,11.978106 9.02701218,12.0754507 8.98123597,12.1646562 C8.89677353,12.3512058 8.95765431,12.586428 9.13443999,12.6919119 L9.54056858,12.9430868 C9.71719946,13.0485704 9.9396068,12.991759 10.0470344,12.8213246 C10.1544619,12.643077 10.3457354,12.5292913 10.560437,12.5292913 C10.7751386,12.5292913 10.9670274,12.6510534 11.074455,12.8213246 C11.1894349,12.9917594 11.4042899,13.0568725 11.5803041,12.9430868 L11.9868945,12.6919119 C12.155203,12.5864282 12.2245611,12.3591821 12.1399438,12.1727947 C12.1399438,12.1727947 12.1399438,12.1648183 12.1323915,12.1648183 C12.1248392,12.1566791 12.1248392,12.1483772 12.1171327,12.1402379 L12.1095804,12.1320987 C12.0788257,12.0522909 12.0630688,11.9669255 12.0631878,11.8807602 C12.0631878,11.5320778 12.316729,11.2563227 12.6382415,11.2317425 L12.6457938,11.2237661 C12.8467445,11.2090965 13.0018267,11.0311563 12.9990568,10.8184347 L12.9990568,10.3074573 C13.0138532,10.0966532 12.85248,9.92605488 12.6612066,9.91010225 M11.4571551,10.9076403 C11.4189312,11.0211004 11.3572798,11.1264207 11.2888466,11.2156263 C11.1502851,11.3860611 10.9514595,11.515636 10.7288973,11.5563324 C10.67299,11.5656546 10.6165573,11.5710383 10.5599736,11.5724479 C10.506491,11.5724479 10.4449937,11.5644715 10.3915116,11.5563323 C10.1691042,11.5157992 9.96950836,11.3862232 9.83171711,11.2156263 C9.75480702,11.1264208 9.70147808,11.0211004 9.66263845,10.9076402 L9.66263839,10.9076401 C9.62273111,10.7990276 9.60204317,10.6835993 9.60160358,10.5670975 C9.60160358,10.4453354 9.6245687,10.3320374 9.65508617,10.2260658 C9.6937724,10.1126056 9.747255,10.0072853 9.8240113,9.91807975 C9.96195608,9.73966864 10.1613984,9.61823218 10.391358,9.57753717 C10.4448406,9.56956077 10.4987856,9.56142158 10.55982,9.56142158 C10.6214713,9.56142158 10.6747999,9.56939797 10.7288986,9.57753717 C10.951306,9.61823299 11.1501317,9.74764631 11.2962453,9.91807975 C11.3648325,10.0072852 11.4264844,10.1126056 11.4645538,10.2260658 C11.5033942,10.3318751 11.5184988,10.4451719 11.5184988,10.5670975 L11.5184988,10.5670993 C11.5181084,10.6836375 11.4973106,10.7990948 11.4571551,10.9076419" id="Shape"></path>
                </g>
            </g>
        </g>
    </g>
</svg>